<svg width="120" height="35" viewBox="0 0 120 35" fill="none" xmlns="http://www.w3.org/2000/svg">
<path d="M9.205 27.385C13.44 27.385 16.975 25.565 16.975 21.645C16.975 17.305 13.09 16.5 9.905 15.8C7.7 15.31 5.845 14.855 5.845 13.35C5.845 12.3 6.615 11.46 8.995 11.46C10.675 11.46 12.88 12.37 14.245 13.49L16.31 10.69C14.385 9.08 12.215 8.065 8.68 8.065C4.585 8.065 1.785 10.27 1.785 13.525C1.785 17.83 5.6 18.67 8.785 19.405C11.025 19.93 12.915 20.385 12.915 21.89C12.915 23.43 11.515 24.025 9.205 24.025C6.825 24.025 4.76 23.01 3.36 21.82L1.015 24.445C2.695 26.16 5.775 27.385 9.205 27.385ZM20.7353 34H25.0403V24.935C26.4053 26.475 28.3653 27.28 30.3603 27.28C35.1203 27.28 38.3053 24.13 38.3053 17.69C38.3053 11.25 35.1903 8.065 30.9553 8.065C28.1903 8.065 26.2653 9.395 25.0403 10.865V8.415H20.7353V34ZM29.4153 23.85C27.8753 23.85 26.1953 23.045 25.0403 21.54V14.085C26.0553 12.86 27.7703 11.74 29.5553 11.74C32.3203 11.74 34.0003 13.805 34.0003 17.725C34.0003 21.855 32.6703 23.85 29.4153 23.85ZM42.1318 27H46.4368V15.24C47.6618 13.245 49.4118 11.95 52.1768 11.95C52.4218 11.95 53.1218 11.985 53.3318 12.02L53.4718 8.065H53.1918C49.6568 8.065 47.6618 9.605 46.5068 11.46H46.4368V8.415H42.1318V27ZM56.6956 5.195H61.1056V1.45H56.6956V5.195ZM56.7306 27H61.0706V8.415H56.7306V27ZM66.0918 27H70.4318V14.155C72.0068 12.72 73.5818 11.74 75.4718 11.74C77.3618 11.74 78.2368 12.685 78.2368 14.75V27H82.5768V13.665C82.5768 9.99 80.4768 8.065 77.2218 8.065C73.8618 8.065 71.6218 9.675 70.4318 10.935V8.415H66.0918V27ZM94.3906 27.245C95.4756 27.245 97.0856 27.105 97.5406 27V23.605C97.1206 23.745 96.3156 23.85 95.6856 23.85C93.5506 23.85 92.9556 23.045 92.9556 21.05V11.845H97.7506V8.415H92.9556V1.94H88.6506V8.415H85.4306V11.845H88.6506V22.135C88.6506 25.495 89.6656 27.245 94.3906 27.245ZM109.141 27.385C113.656 27.385 118.206 24.515 118.206 17.725C118.206 10.865 113.656 8.065 109.141 8.065C104.591 8.065 100.076 10.865 100.076 17.725C100.076 24.515 104.626 27.385 109.141 27.385ZM109.141 23.78C105.851 23.78 104.416 21.26 104.416 17.725C104.416 13.98 106.026 11.74 109.141 11.74C112.396 11.74 113.866 14.26 113.866 17.725C113.866 21.54 112.256 23.78 109.141 23.78Z" fill="#373E57"/>
<line x1="29" y1="33" x2="120" y2="33" stroke="#373E57" stroke-width="4"/>
</svg>
